<svg id="svg" xmlns="http://www.w3.org/2000/svg" xmlns:xlink="http://www.w3.org/1999/xlink" width="400" height="400" viewBox="0, 0, 400,400"><g id="svgg"><path id="path0" d="M161.200 23.600 C 160.821 23.845,141.942 23.990,109.900 23.994 C 76.371 23.998,59.200 24.135,59.200 24.400 C 59.200 24.633,57.875 24.800,56.024 24.800 C 54.277 24.800,52.736 24.980,52.600 25.200 C 52.464 25.420,51.553 25.600,50.576 25.600 C 49.599 25.600,48.800 25.780,48.800 26.000 C 48.800 26.220,48.181 26.400,47.424 26.400 C 46.667 26.400,45.949 26.559,45.829 26.754 C 45.708 26.948,44.798 27.229,43.805 27.378 C 42.812 27.527,42.000 27.818,42.000 28.025 C 42.000 28.231,41.640 28.400,41.200 28.400 C 40.760 28.400,40.400 28.580,40.400 28.800 C 40.400 29.020,40.175 29.200,39.900 29.200 C 39.185 29.201,36.176 31.730,34.323 33.887 C 33.068 35.348,31.600 38.097,31.600 38.984 C 31.600 39.323,31.420 39.600,31.200 39.600 C 30.980 39.600,30.800 40.374,30.800 41.320 C 30.800 42.266,30.601 43.239,30.357 43.483 C 30.084 43.756,30.007 44.632,30.157 45.763 C 30.291 46.773,30.507 48.455,30.639 49.500 C 30.770 50.545,31.040 51.571,31.239 51.780 C 31.437 51.989,31.600 52.486,31.600 52.885 C 31.600 53.284,31.760 53.923,31.956 54.305 C 32.152 54.687,32.720 55.855,33.219 56.900 C 33.718 57.945,34.277 58.800,34.463 58.800 C 34.648 58.800,34.800 59.160,34.800 59.600 C 34.800 60.040,34.980 60.400,35.200 60.400 C 35.420 60.400,35.600 60.720,35.600 61.112 C 35.600 61.503,35.960 62.083,36.400 62.400 C 36.840 62.717,37.200 63.169,37.200 63.404 C 37.200 63.640,37.920 64.628,38.800 65.600 C 39.680 66.572,40.400 67.515,40.400 67.695 C 40.400 67.874,41.165 68.808,42.100 69.771 C 43.035 70.733,44.520 72.378,45.400 73.426 C 47.382 75.787,52.301 80.690,55.096 83.091 C 56.249 84.081,63.063 90.721,70.237 97.846 C 77.412 104.972,84.594 111.975,86.197 113.410 C 87.800 114.845,95.046 121.909,102.299 129.109 C 109.553 136.309,116.529 143.100,117.802 144.200 C 119.633 145.782,123.915 150.003,129.490 155.718 C 129.660 155.893,134.075 160.218,139.300 165.331 L 148.800 174.626 148.800 229.289 C 148.800 265.300,148.936 284.037,149.200 284.200 C 149.420 284.336,149.600 285.596,149.600 287.000 C 149.600 288.404,149.780 289.664,150.000 289.800 C 150.220 289.936,150.400 290.757,150.400 291.624 C 150.400 292.491,150.580 293.200,150.800 293.200 C 151.020 293.200,151.200 293.920,151.200 294.800 C 151.200 295.680,151.380 296.400,151.600 296.400 C 151.820 296.400,152.000 296.839,152.000 297.376 C 152.000 297.913,152.180 298.464,152.400 298.600 C 152.620 298.736,152.800 299.197,152.800 299.624 C 152.800 300.051,152.980 300.400,153.200 300.400 C 153.420 300.400,153.600 300.760,153.600 301.200 C 153.600 301.640,153.780 302.000,154.000 302.000 C 154.220 302.000,154.400 302.236,154.400 302.525 C 154.400 302.813,154.760 303.436,155.200 303.908 C 155.640 304.380,156.000 305.004,156.000 305.295 C 156.000 305.586,156.360 306.083,156.800 306.400 C 157.240 306.717,157.600 307.123,157.600 307.302 C 157.600 307.480,158.185 308.242,158.900 308.994 C 159.615 309.746,161.545 311.855,163.188 313.681 C 164.831 315.506,168.651 319.520,171.676 322.600 C 183.427 334.565,189.942 341.292,193.400 345.030 C 195.380 347.170,199.203 351.099,201.896 353.760 C 209.072 360.853,209.708 361.492,213.103 365.008 C 214.806 366.772,216.830 368.655,217.600 369.192 C 218.370 369.730,219.455 370.626,220.011 371.185 C 220.567 371.743,221.422 372.425,221.911 372.700 C 222.400 372.975,223.205 373.425,223.700 373.700 C 224.195 373.975,224.704 374.340,224.830 374.511 C 224.957 374.681,225.992 374.931,227.130 375.066 C 228.269 375.201,229.200 375.466,229.200 375.656 C 229.200 375.845,230.280 376.000,231.600 376.000 C 232.933 376.000,234.000 375.822,234.000 375.600 C 234.000 375.380,234.648 375.200,235.440 375.200 C 238.125 375.200,244.000 370.939,244.000 368.991 C 244.000 368.666,244.180 368.400,244.400 368.400 C 244.620 368.400,244.800 367.961,244.800 367.424 C 244.800 366.887,244.980 366.336,245.200 366.200 C 245.420 366.064,245.600 365.243,245.600 364.376 C 245.600 363.509,245.780 362.800,246.000 362.800 C 246.240 362.800,246.400 361.208,246.400 358.824 C 246.400 356.604,246.577 354.738,246.800 354.600 C 247.065 354.436,247.200 325.334,247.200 268.591 L 247.200 182.829 253.199 176.774 C 256.499 173.445,260.144 169.631,261.299 168.299 C 262.455 166.968,267.095 162.171,271.610 157.639 C 276.126 153.108,280.806 148.230,282.010 146.800 C 283.215 145.371,285.259 143.211,286.554 142.000 C 287.849 140.790,289.469 139.186,290.154 138.435 C 290.839 137.684,293.470 134.958,296.000 132.377 C 298.530 129.797,302.400 125.767,304.600 123.422 C 306.800 121.078,311.880 115.819,315.890 111.736 C 319.899 107.653,323.589 103.768,324.090 103.103 C 324.590 102.438,328.786 98.093,333.414 93.447 C 338.041 88.801,342.451 84.208,343.214 83.240 C 344.501 81.607,347.392 78.642,353.664 72.527 C 357.588 68.701,362.000 63.994,362.000 63.633 C 362.000 63.454,362.945 62.312,364.100 61.096 C 366.841 58.210,367.600 57.277,367.600 56.795 C 367.600 56.578,367.780 56.400,368.000 56.400 C 368.220 56.400,368.400 56.212,368.400 55.983 C 368.400 55.754,368.760 55.180,369.200 54.708 C 369.640 54.236,370.000 53.613,370.000 53.325 C 370.000 53.036,370.180 52.800,370.400 52.800 C 370.620 52.800,370.800 52.564,370.800 52.275 C 370.800 51.986,371.160 51.005,371.600 50.094 C 372.040 49.184,372.400 48.081,372.400 47.643 C 372.400 47.205,372.580 46.736,372.800 46.600 C 373.023 46.462,373.200 44.604,373.200 42.400 C 373.200 40.196,373.023 38.338,372.800 38.200 C 372.580 38.064,372.400 37.423,372.400 36.776 C 372.400 36.129,372.220 35.600,372.000 35.600 C 371.780 35.600,371.600 35.240,371.600 34.800 C 371.600 34.360,371.420 34.000,371.200 34.000 C 370.980 34.000,370.800 33.754,370.800 33.454 C 370.800 32.028,365.102 27.200,363.420 27.200 C 363.079 27.200,362.800 27.020,362.800 26.800 C 362.800 26.580,362.440 26.400,362.000 26.400 C 361.560 26.400,361.200 26.220,361.200 26.000 C 361.200 25.780,360.660 25.600,360.000 25.600 C 359.340 25.600,358.800 25.420,358.800 25.200 C 358.800 24.980,358.181 24.800,357.424 24.800 C 356.667 24.800,355.936 24.620,355.800 24.400 C 355.664 24.180,354.584 24.000,353.400 24.000 C 352.216 24.000,351.136 23.820,351.000 23.600 C 350.665 23.057,162.040 23.057,161.200 23.600 M343.949 47.893 C 343.647 48.274,343.040 48.958,342.600 49.414 C 342.160 49.869,341.170 51.024,340.400 51.980 C 339.183 53.492,336.709 56.029,330.698 61.927 C 328.910 63.682,320.741 72.147,314.600 78.610 C 312.180 81.157,307.590 85.908,304.400 89.169 C 301.210 92.429,297.520 96.299,296.200 97.769 C 294.880 99.239,290.359 103.923,286.153 108.178 C 281.947 112.433,277.987 116.595,277.353 117.427 C 276.719 118.260,271.835 123.319,266.500 128.671 C 261.165 134.023,256.789 138.626,256.776 138.901 C 256.763 139.175,255.683 140.390,254.376 141.600 C 250.277 145.396,246.347 149.333,242.000 154.001 C 239.690 156.480,235.820 160.529,233.400 162.996 C 226.874 169.651,224.800 171.972,224.800 172.619 C 224.800 172.938,224.620 173.200,224.400 173.200 C 224.180 173.200,224.000 173.740,224.000 174.400 C 224.000 175.060,223.820 175.600,223.600 175.600 C 223.335 175.600,223.200 203.471,223.200 258.414 L 223.200 341.228 221.900 339.724 C 221.185 338.897,218.080 335.734,215.000 332.695 C 211.920 329.657,209.245 327.017,209.055 326.830 C 208.866 326.642,208.326 326.057,207.855 325.529 C 202.550 319.577,199.647 316.472,196.706 313.606 C 194.784 311.733,192.804 309.801,192.306 309.314 C 191.808 308.827,189.420 306.333,187.000 303.771 C 184.580 301.209,181.327 297.785,179.770 296.161 C 178.214 294.537,176.698 292.757,176.402 292.205 C 176.107 291.652,175.731 291.200,175.568 291.200 C 175.404 291.200,175.144 290.435,174.990 289.500 C 174.836 288.565,174.569 287.620,174.398 287.400 C 174.226 287.180,173.985 286.190,173.862 285.200 C 173.738 284.210,173.420 282.320,173.155 281.000 C 172.795 279.213,172.638 264.245,172.539 222.400 L 172.407 166.200 171.504 164.425 C 170.599 162.648,167.969 159.812,165.041 157.455 C 164.184 156.765,162.384 155.068,161.041 153.684 C 156.030 148.518,139.849 132.689,136.625 129.800 C 133.757 127.229,126.061 119.673,123.352 116.767 C 122.446 115.795,119.296 112.702,116.352 109.894 C 105.853 99.877,99.469 93.687,91.491 85.788 C 87.041 81.382,82.608 77.152,81.641 76.388 C 80.674 75.625,78.784 73.874,77.441 72.498 C 71.224 66.127,67.390 62.303,63.651 58.743 C 61.423 56.622,59.600 54.680,59.600 54.426 C 59.600 53.954,59.229 53.437,57.751 51.850 C 55.356 49.278,55.621 48.800,59.443 48.800 C 61.043 48.800,62.464 48.620,62.600 48.400 C 62.763 48.136,84.111 47.998,125.324 47.994 C 164.969 47.990,188.019 47.846,188.400 47.600 C 189.644 46.796,344.587 47.088,343.949 47.893 " stroke="none" fill="#040404" fill-rule="evenodd"></path><path id="path1" d="" stroke="none" fill="#080404" fill-rule="evenodd"></path><path id="path2" d="" stroke="none" fill="#080404" fill-rule="evenodd"></path><path id="path3" d="" stroke="none" fill="#080404" fill-rule="evenodd"></path><path id="path4" d="" stroke="none" fill="#080404" fill-rule="evenodd"></path></g></svg>